<svg xmlns="http://www.w3.org/2000/svg" width="24" height="24" viewBox="0 0 24 24">
                      <g id="Group_308" data-name="Group 308" transform="translate(-35 -156)">
                        <rect id="Frame" width="24" height="24" transform="translate(35 156)" fill="#90a4ae" opacity="0" />
                        <path id="Chart" d="M5.579,1.471A1.42,1.42,0,0,1,6.009.43,1.418,1.418,0,0,1,7.05,0h3.9A1.418,1.418,0,0,1,11.99.43a1.42,1.42,0,0,1,.43,1.041V4.49h3.63A1.96,1.96,0,0,1,18,6.44v5.636a1.845,1.845,0,0,1-.574,1.367,1.89,1.89,0,0,1-1.376.564H1.949a1.892,1.892,0,0,1-1.376-.564A1.848,1.848,0,0,1,0,12.076V9.382A1.845,1.845,0,0,1,.573,8.016a1.892,1.892,0,0,1,1.376-.564h3.63ZM1.949,9.076a.284.284,0,0,0-.22.1.305.305,0,0,0-.086.21v2.694a.294.294,0,0,0,.086.22.3.3,0,0,0,.22.086h3.63V9.076ZM10.8,1.624H7.2V12.382H10.8ZM12.42,12.382h3.63a.3.3,0,0,0,.22-.086.294.294,0,0,0,.086-.22V6.44a.3.3,0,0,0-.306-.307H12.42Z" transform="translate(38 161)" fill="#90a4ae" />
                      </g>
                    </svg>