<svg xmlns="http://www.w3.org/2000/svg" width="20" height="20" viewBox="0 0 20 20"><defs><style>.a{fill:none;}.b,.c{fill:#005ba9;}.b{opacity:0.3;}</style></defs><rect class="a" width="20" height="20"/><g transform="translate(3.599 1.81)"><path class="b" d="M4.432,16.523H15.266a.833.833,0,0,1,.833.833h0a.833.833,0,0,1-.833.833H4.432a.833.833,0,0,1-.833-.833h0a.833.833,0,0,1,.833-.833" transform="translate(-3.599 -1.81)"/><path class="c" d="M16.035,6.89a1.251,1.251,0,0,0,0-1.768L13.089,2.176a1.251,1.251,0,0,0-1.768,0L9.847,3.65l4.714,4.714Z" transform="translate(-3.599 -1.81)"/><path class="c" d="M4.22,9.277a1.251,1.251,0,0,0-.366.916l.072,2.856a1.249,1.249,0,0,0,1.237,1.219L8.1,14.3A1.247,1.247,0,0,0,9,13.93l4.388-4.388L8.669,4.828Z" transform="translate(-3.599 -1.81)"/><rect class="b" width="1.667" height="6.667" transform="translate(5.07 3.018) rotate(-45)"/></g></svg>