<svg xmlns="http://www.w3.org/2000/svg" width="20" height="20" viewBox="0 0 20 20"><defs><style>.a{fill:none;}.b,.c{fill:#005ba9;fill-rule:evenodd;}.b{opacity:0.3;}</style></defs><rect class="a" width="20" height="20"/><path class="b" d="M.111,0,0,7.391,1.768,9.159,3.536,7.391,2.357,6.213,3.5,5.069,2.323,3.89,3.536,2.677,3.433,0Z" transform="translate(8.56 8.94) rotate(45)"/><path class="c" d="M5,10a5,5,0,1,1,5-5A5,5,0,0,1,5,10Zm.16-4.929a1.25,1.25,0,1,0-1.25-1.25A1.25,1.25,0,0,0,5.16,5.071Z" transform="translate(12.488 0.417) rotate(45)"/></svg>