<?xml version="1.0" encoding="utf-8"?>
<svg xmlns="http://www.w3.org/2000/svg" width="25" height="25" viewBox="0 0 25 25">
                        <g id="Group_319" data-name="Group 319" transform="translate(-914.5 -354.5)">
                          <rect id="Frame" width="24" height="24" transform="translate(915 355)" fill="#90a4ae" stroke="#707070" stroke-width="1" opacity="0"></rect>
                          <path id="User" d="M0,14.341V10.884l.514-.216c.065-.026.15-.059.255-.1s.231-.091.376-.158c.237-.093.473-.188.712-.287s.467-.194.69-.285l.061-.03.059-.03c.119-.038.227-.079.326-.117s.2-.079.305-.119a3.521,3.521,0,0,1,2.785.04,4.57,4.57,0,0,0,.969.3,4.978,4.978,0,0,0,.949.1,4.959,4.959,0,0,0,.947-.1,4.534,4.534,0,0,0,.969-.3,3.551,3.551,0,0,1,1.392-.307,3.51,3.51,0,0,1,1.394.267c.105.04.206.079.305.119s.208.079.326.117l.061.03.059.03q.337.137.692.285c.237.1.473.194.71.287.146.067.271.117.376.158l.257.1.514.216v3.457H14.321v-2.33a.185.185,0,0,1-.051-.01.11.11,0,0,1-.049-.03c-.237-.091-.475-.186-.712-.285l-.69-.287a.274.274,0,0,1-.071-.028.142.142,0,0,0-.049-.03c-.119-.04-.227-.079-.326-.119s-.194-.079-.287-.117a2.035,2.035,0,0,0-.75-.14,1.7,1.7,0,0,0-.73.158,6.058,6.058,0,0,1-1.325.407A7.1,7.1,0,0,1,8,11.655a7.108,7.108,0,0,1-1.284-.127,6.007,6.007,0,0,1-1.323-.407,1.7,1.7,0,0,0-.732-.158,2.035,2.035,0,0,0-.75.14c-.091.038-.188.079-.285.117s-.208.079-.328.119a.142.142,0,0,0-.049.03.247.247,0,0,1-.069.028l-.692.287q-.355.149-.71.285a.117.117,0,0,1-.051.03.188.188,0,0,1-.049.01v2.33ZM11.793,3.793a3.659,3.659,0,0,1-1.106,2.688A3.661,3.661,0,0,1,8,7.585a3.657,3.657,0,0,1-2.686-1.1A3.659,3.659,0,0,1,4.207,3.793,3.665,3.665,0,0,1,5.314,1.117,3.645,3.645,0,0,1,8,0a3.648,3.648,0,0,1,2.686,1.117,3.665,3.665,0,0,1,1.106,2.676m-2.3-1.481a2.122,2.122,0,0,0-2.984,0,2,2,0,0,0-.621,1.481,2.029,2.029,0,0,0,.621,1.5,2.127,2.127,0,0,0,2.984,0,2.03,2.03,0,0,0,.623-1.5,2,2,0,0,0-.623-1.481" transform="translate(919 360)" fill="#90a4ae"></path>
                        </g>
                      </svg>